HIERARCHY
ROOT Hips
{
 OFFSET 0.000000 0.000000 0.000000
 CHANNELS 6 Xposition Yposition Zposition Yrotation Xrotation Zrotation
 JOINT Chest
 {
  OFFSET 0.000000 9.857222 0.000240
  CHANNELS 3 Yrotation Xrotation Zrotation
  JOINT Chest2
  {
   OFFSET 0.000000 10.876940 -0.000436
   CHANNELS 3 Yrotation Xrotation Zrotation
   JOINT Chest3
   {
    OFFSET 0.000000 9.827798 0.000000
    CHANNELS 3 Yrotation Xrotation Zrotation
    JOINT Chest4
    {
     OFFSET 0.000000 9.827798 0.000000
     CHANNELS 3 Yrotation Xrotation Zrotation
     JOINT Neck
     {
      OFFSET 0.000000 13.831992 0.000000
      CHANNELS 3 Yrotation Xrotation Zrotation
      JOINT Head
      {
       OFFSET 0.000000 9.147643 -0.001036
       CHANNELS 3 Yrotation Xrotation Zrotation
       End Site
       {
        OFFSET 0.000000 17.515799 -0.000541
       }
      }
     }
     JOINT RightCollar
     {
      OFFSET -3.001579 7.717577 0.000000
      CHANNELS 3 Yrotation Xrotation Zrotation
      JOINT RightShoulder
      {
       OFFSET -14.002642 0.000000 0.000000
       CHANNELS 3 Yrotation Xrotation Zrotation
       JOINT RightElbow
       {
        OFFSET -30.053852 0.000000 0.000000
        CHANNELS 3 Yrotation Xrotation Zrotation
        JOINT RightWrist
        {
         OFFSET -24.564923 0.000000 -0.000000
         CHANNELS 3 Yrotation Xrotation Zrotation
         End Site
         {
          OFFSET -18.334355 0.000000 0.000000
         }
        }
       }
      }
     }
     JOINT LeftCollar
     {
      OFFSET 3.001579 7.717577 0.000000
      CHANNELS 3 Yrotation Xrotation Zrotation
      JOINT LeftShoulder
      {
       OFFSET 14.002642 0.000000 0.000000
       CHANNELS 3 Yrotation Xrotation Zrotation
       JOINT LeftElbow
       {
        OFFSET 30.053852 0.000000 0.000000
        CHANNELS 3 Yrotation Xrotation Zrotation
        JOINT LeftWrist
        {
         OFFSET 24.564923 0.000000 -0.000000
         CHANNELS 3 Yrotation Xrotation Zrotation
         End Site
         {
          OFFSET 18.334355 0.000000 0.000000
         }
        }
       }
      }
     }
    }
   }
  }
 }
 JOINT RightHip
 {
  OFFSET -8.003235 -0.001175 -0.000120
  CHANNELS 3 Yrotation Xrotation Zrotation
  JOINT RightKnee
  {
   OFFSET 0.000000 -41.759727 0.000113
   CHANNELS 3 Yrotation Xrotation Zrotation
   JOINT RightAnkle
   {
    OFFSET 0.000000 -40.728748 0.000159
    CHANNELS 3 Yrotation Xrotation Zrotation
    JOINT RightToe
    {
     OFFSET 0.000000 -6.515296 14.732841
     CHANNELS 3 Yrotation Xrotation Zrotation
     End Site
     {
      OFFSET 0.000000 -1.502839 6.412115
     }
    }
   }
  }
 }
 JOINT LeftHip
 {
  OFFSET 8.003235 -0.001175 -0.000120
  CHANNELS 3 Yrotation Xrotation Zrotation
  JOINT LeftKnee
  {
   OFFSET 0.000000 -41.759727 0.000113
   CHANNELS 3 Yrotation Xrotation Zrotation
   JOINT LeftAnkle
   {
    OFFSET 0.000000 -40.728748 0.000159
    CHANNELS 3 Yrotation Xrotation Zrotation
    JOINT LeftToe
    {
     OFFSET 0.000000 -6.515296 14.732841
     CHANNELS 3 Yrotation Xrotation Zrotation
     End Site
     {
      OFFSET 0.000000 -1.502839 6.412115
     }
    }
   }
  }
 }
}
MOTION
Frames: 13
Frame Time: 0.016667
7.095979 87.243258 1.780856 -40.151556 16.452366 -3.684537 9.406631 -7.072771 2.171805 1.367769 0.083697 -0.249011 1.367769 0.083697 -0.249011 1.025861 0.062216 -0.186947 -1.150786 16.249372 1.140880 -2.550098 -5.971422 2.535247 2.702581 9.497449 11.397710 56.137887 15.210630 78.791086 66.754060 -30.626891 -42.296043 5.251160 -3.792816 -8.251572 -16.233659 13.830623 -8.598150 -44.678202 4.181331 -72.378034 -30.905842 -4.117871 4.616209 13.999057 -8.774338 -4.159892 -4.095447 -29.191094 12.040240 -1.571613 31.258705 -11.250369 -4.636035 -14.954249 -2.171529 9.225634 -3.651241 4.282356 22.740006 -31.212287 -7.351314 -8.273854 35.471685 -1.941286 1.513144 -20.612894 3.491819 -1.403417 2.538552 -0.659843
7.478641 86.855907 1.846448 -39.750453 17.095155 -3.938708 9.094362 -7.063599 2.393674 1.330807 0.009316 -0.283896 1.330807 0.009316 -0.283896 0.998110 0.006369 -0.212943 -1.099606 16.088216 1.213159 -2.485836 -6.269935 2.655999 2.626571 9.341125 11.503723 55.763590 14.708278 78.988551 65.800980 -31.589592 -42.314885 5.193947 -3.812789 -8.434307 -16.295998 13.721211 -8.667504 -45.171111 3.653988 -72.652901 -28.507675 -4.616142 4.287954 13.912455 -8.987511 -4.402439 -4.908166 -31.086369 13.287784 -1.581546 33.684290 -12.218891 -6.726451 -15.153243 -2.123793 10.366686 -4.565042 4.801693 23.154839 -32.797563 -8.223054 -9.159761 37.310613 -2.093927 1.906473 -21.260363 3.716426 -1.476325 2.465401 -0.643721
7.832180 86.433596 1.862078 -39.279219 17.402416 -4.051489 8.784369 -6.908748 2.637713 1.282710 0.007608 -0.352538 1.282710 0.007608 -0.352538 0.962037 0.004966 -0.264421 -1.054352 15.918973 1.298883 -2.437962 -6.582837 2.804238 2.613488 9.439546 11.692544 55.882838 14.052789 79.127543 64.839922 -33.163502 -42.839167 5.076541 -3.778697 -8.593284 -16.369549 14.061578 -8.883253 -46.257333 3.183195 -72.757020 -26.110287 -5.758557 4.209981 13.715500 -9.363637 -5.233210 -5.824007 -32.539079 14.505424 -1.877653 35.852837 -13.431444 -8.417391 -15.407258 -2.088172 11.342764 -5.264018 5.302675 23.686732 -34.030753 -9.266131 -9.929866 39.205526 -1.950453 2.227631 -21.842115 3.781088 -1.548425 2.350568 -0.620808
8.173756 86.062661 1.808641 -39.074815 17.687368 -4.161925 8.762104 -6.967672 2.842412 1.227851 0.051640 -0.437632 1.227851 0.051640 -0.437632 0.920926 0.037851 -0.328329 -1.024065 15.763783 1.407221 -2.426131 -6.868358 2.999819 2.600704 9.709390 12.000838 56.434685 13.438638 79.235885 64.214226 -35.500199 -43.893650 4.895706 -3.721747 -8.581494 -16.777835 15.214076 -9.461333 -47.393900 3.305054 -71.483135 -24.574196 -8.842030 3.698755 13.406834 -9.665414 -6.632088 -7.152897 -33.520063 15.832952 -2.490335 37.153687 -15.009243 -8.714472 -15.654214 -2.094660 11.885368 -5.557851 5.679012 23.625780 -35.355705 -9.814595 -10.427037 41.037817 -2.209756 2.748659 -22.227075 3.868979 -1.562889 2.117224 -0.592202
8.554476 85.766910 1.723747 -38.925347 17.977511 -4.158811 8.847020 -7.157826 2.876618 1.172038 0.086346 -0.522011 1.172038 0.086346 -0.522011 0.879103 0.063759 -0.391676 -1.038300 15.630232 1.575734 -2.519213 -7.109830 3.323641 2.543001 9.734987 12.375914 57.425886 13.258699 79.517954 64.969547 -39.120453 -45.656938 4.560405 -3.649165 -8.433903 -17.371804 15.903525 -10.301200 -48.378844 3.824309 -70.473498 -22.981979 -13.707495 3.401817 13.077214 -9.629970 -8.103375 -8.292535 -34.426969 16.913101 -3.515814 38.039778 -16.775317 -8.454094 -15.664478 -2.090727 12.152511 -5.814773 5.943618 23.956303 -36.469164 -10.560126 -11.103257 42.519495 -2.630181 3.103691 -22.418377 4.105929 -1.578635 1.907004 -0.586814
8.956177 85.504415 1.709760 -38.444115 18.111451 -3.953152 8.716471 -7.122551 2.798543 1.095695 0.092344 -0.606484 1.095695 0.092344 -0.606484 0.821864 0.068171 -0.455030 -1.101832 15.478685 1.787650 -2.721835 -7.380461 3.748014 2.634829 10.256968 12.811053 58.882250 13.128220 79.186443 68.093673 -44.114915 -49.044444 4.215175 -3.585115 -8.084812 -18.101824 16.509279 -11.196577 -49.159982 3.300897 -70.261196 -20.681488 -19.263013 4.347244 12.953686 -9.640874 -8.826386 -9.326683 -35.302512 17.603416 -4.393529 39.185773 -18.220435 -8.625989 -15.541085 -2.148023 12.382243 -6.295540 6.188386 24.451007 -37.130031 -11.857757 -11.495360 43.784810 -2.225506 3.279559 -22.490201 4.151848 -1.611158 1.708751 -0.601478
9.309994 85.245388 1.779226 -37.703261 17.798883 -3.482252 8.343921 -6.662551 2.649308 1.023140 0.125586 -0.687501 1.023140 0.125586 -0.687501 0.767497 0.093039 -0.515838 -1.202008 15.295137 1.949586 -2.976880 -7.709869 4.095005 2.884005 10.514970 13.299976 60.409519 13.235022 78.877951 73.119831 -49.343799 -55.034965 3.933662 -3.621551 -7.090694 -18.498951 17.111621 -11.896211 -48.073398 2.634622 -69.437112 -19.166523 -24.263819 5.254954 12.902399 -9.714677 -8.719258 -9.499856 -36.103951 17.463805 -5.356178 40.823732 -19.223903 -9.293471 -15.423298 -2.206667 12.466149 -6.926044 6.320016 23.876494 -37.299594 -12.525205 -11.212177 44.868861 -1.952559 3.380892 -22.505772 4.286222 -1.599127 1.503075 -0.616604
9.546486 85.064026 1.832540 -37.190148 17.451541 -3.136092 8.099059 -6.265705 2.610086 0.986496 0.173722 -0.745218 0.986496 0.173722 -0.745218 0.740084 0.129089 -0.559195 -1.334708 15.105361 1.997944 -3.251728 -8.053540 4.243270 2.940555 10.849319 13.653308 61.545675 13.235344 78.415704 79.331013 -53.713595 -63.190020 3.730243 -3.582752 -6.096019 -18.367738 17.346564 -12.331749 -45.581268 3.359398 -66.873133 -19.400711 -30.278678 5.504925 13.041586 -10.131839 -8.452063 -9.676728 -36.483039 17.382570 -6.009213 41.942868 -20.048860 -9.720553 -15.299208 -2.277270 12.576724 -7.400925 6.354423 23.237551 -37.413612 -12.745654 -10.341357 45.753671 -1.600489 3.111615 -22.453381 4.457506 -1.561415 1.302908 -0.621470
9.679267 84.998295 1.941885 -36.736021 16.911239 -2.767123 7.922033 -5.785018 2.555005 0.979398 0.249127 -0.764348 0.979398 0.249127 -0.764348 0.734860 0.185621 -0.573661 -1.488824 14.925232 1.941664 -3.527527 -8.382857 4.204237 2.845292 11.158984 13.866516 60.458755 13.716028 77.344043 86.323673 -56.880172 -71.532622 3.547170 -3.439815 -5.153038 -17.893318 17.149187 -12.452686 -41.128125 3.456197 -64.972246 -20.995109 -36.448201 7.133873 13.209463 -10.190009 -8.290355 -10.181897 -36.187465 17.301317 -6.051740 42.515400 -20.580912 -9.639562 -15.284507 -2.302206 12.344612 -7.564812 6.218953 22.492883 -37.140990 -12.641841 -9.627589 46.282142 -1.567406 2.891583 -22.267120 4.669452 -1.502528 1.076259 -0.605422
9.730390 85.103604 2.132762 -36.267967 16.116412 -2.399506 7.739517 -5.202973 2.524277 0.984394 0.363594 -0.748917 0.984394 0.363594 -0.748917 0.738740 0.271491 -0.562273 -1.622022 14.779034 1.809394 -3.733905 -8.653972 4.013807 2.702854 11.341362 13.979504 56.087203 14.744104 75.139436 93.831769 -59.291651 -78.363829 3.044924 -3.314635 -4.785921 -17.396272 16.715778 -12.327945 -35.429473 3.412487 -62.914141 -23.873110 -42.820635 9.277479 13.432350 -9.705652 -8.281105 -11.131838 -35.126318 17.178051 -5.678518 42.432422 -20.881409 -8.951625 -15.238020 -2.361416 11.942361 -7.579977 5.984567 21.624804 -36.284608 -12.177357 -9.620928 46.191939 -2.226154 2.962948 -21.907535 4.990336 -1.456002 0.889488 -0.577038
9.719342 85.390655 2.444084 -35.827924 15.227322 -1.972748 7.516541 -4.584680 2.457492 0.979109 0.468615 -0.727314 0.979109 0.468615 -0.727314 0.734887 0.350298 -0.546235 -1.669045 14.701587 1.643343 -3.762357 -8.803475 3.723972 2.448754 11.112510 14.019490 50.384520 15.762197 72.897179 102.289700 -60.734442 -86.160437 2.261763 -3.120248 -4.457816 -16.714141 16.192720 -12.001986 -29.214529 3.286322 -60.672101 -27.228597 -48.085631 11.655549 14.092198 -9.110138 -8.206863 -11.626021 -33.914422 16.505424 -5.390633 42.132998 -20.726894 -8.119910 -14.915461 -2.541986 11.500206 -7.836496 5.658702 20.546723 -34.932713 -11.556407 -9.393612 45.459864 -2.779622 2.954161 -21.323363 5.268162 -1.391485 0.680531 -0.527570
9.569231 85.852730 2.976433 -35.869840 13.622433 -1.258266 7.620969 -3.357088 2.099241 0.978280 0.557988 -0.707430 0.978280 0.557988 -0.707430 0.734351 0.417360 -0.531463 -1.612673 14.743669 1.485503 -3.594449 -8.735329 3.404508 1.956166 10.732839 13.753620 43.633907 15.677523 70.669337 107.260486 -61.436252 -90.999256 1.310976 -2.925035 -3.979553 -15.904023 15.635559 -11.475702 -22.935185 3.081222 -58.617037 -30.876564 -51.867106 14.758184 14.987904 -8.966014 -7.651919 -11.230137 -31.651044 14.998888 -5.112701 41.119235 -20.319572 -7.333137 -14.536512 -2.842728 11.321397 -7.990086 5.427681 19.953212 -31.806141 -11.011352 -8.855183 43.411073 -3.173503 3.292990 -20.987153 5.774743 -2.012987 0.965244 -0.760240
9.201831 86.534820 3.489805 -35.591067 12.302669 -0.987590 7.221679 -2.654289 2.228607 0.984794 0.620911 -0.691605 0.984794 0.620911 -0.691605 0.739292 0.464571 -0.519701 -1.496804 14.945538 1.355909 -3.319719 -8.371206 3.109186 1.478173 10.337831 13.262295 36.391296 15.077166 67.848581 109.310930 -62.460046 -93.181290 0.169208 -2.448541 -3.078872 -15.292271 15.089589 -10.883335 -15.533156 1.860810 -55.981527 -33.574420 -54.446501 17.251047 15.936270 -8.795328 -6.470403 -11.174702 -29.165615 13.862603 -4.912325 39.380339 -19.551993 -6.068294 -13.661712 -3.173228 10.801393 -8.309903 4.984783 18.915692 -29.352842 -9.941376 -7.942509 41.685667 -3.053777 2.630508 -19.924046 5.652084 -1.850873 0.514391 -0.574099
